<svg id="레이어_1" data-name="레이어 1" xmlns="http://www.w3.org/2000/svg" viewBox="0 0 30.96 30.96"><defs><style>.cls-1{fill:#ff5050;}.cls-2{fill:#fff;}.cls-3{fill:#d84444;}.cls-4{fill:#c43b3b;}</style></defs><path class="cls-1" d="M50.25,38.52" transform="translate(-34.07 -34.55)"/><rect class="cls-2" width="30.96" height="30.96" rx="7.04"/><g id="LINE"><polyline class="cls-3" points="16.16 5.27 14.8 5.27 6.48 17.04 7.83 17.04"/></g><g id="LINE-2" data-name="LINE"><polyline class="cls-3" points="23.52 18.39 22.17 18.39 16.43 10.28 16.43 8.93 15.88 8.37 16.16 7.97"/></g><path class="cls-1" d="M50.22,39.82" transform="translate(-34.07 -34.55)"/><polygon class="cls-4" points="7.43 18.39 6.48 17.04 7.83 17.04 8.79 18.39 7.43 18.39"/><polyline class="cls-1" points="16.43 8.93 16.43 10.28 16.43 22.7 21.61 22.7 21.61 24.61 14.52 24.61 14.52 10.28 15.88 8.37"/><polygon class="cls-3" points="15.21 9.28 15.21 24.2 21.61 24.2 21.61 25.1 14.17 25.1 14.17 10.76 15.21 9.28"/><g id="LINE-3" data-name="LINE"><polyline class="cls-1" points="14.52 10.28 8.79 18.39 7.83 17.04 16.16 5.27 24.48 17.04 23.52 18.39 16.16 7.97"/></g></svg>